<svg width="50" height="50" viewBox="0 0 50 50" fill="none" xmlns="http://www.w3.org/2000/svg">
<path d="M4.65454 37.5838V32.5172C4.65454 29.9636 5.93131 28.6869 8.48484 28.6869H12.6303V23.4747H15.4424V41.4141H8.48484C5.93131 41.4141 4.65454 40.1374 4.65454 37.5838ZM7.4909 37.8262C7.4909 38.5697 7.86262 38.9414 8.60606 38.9414H12.6303V31.1353H8.60606C7.86262 31.1353 7.4909 31.5151 7.4909 32.2747V37.8262Z" fill="var(--pri-color-1)"/>
<path fill-rule="evenodd" clip-rule="evenodd" d="M32.5946 29.2929H35.431V41.4141H32.5946V29.2929ZM25.4191 29.2929H28.2555V37.4869C28.2555 38.5212 28.7888 39.0869 29.8555 39.1838V41.6323C26.8979 41.6323 25.4191 40.1535 25.4191 37.1959V29.2929ZM19.0767 29.2929H21.913V41.4141H19.0767V29.2929Z" fill="var(--color-drk-1)"/>
<path d="M18.9414 11.8829V9.02225H21.8747V11.8829H18.9414ZM18.9899 26.7677V14.0404H21.8263V26.7677H18.9899ZM25.4293 26.7677V12.6586C25.4293 10.1051 26.7061 8.82831 29.2596 8.82831H31.5626L32.8232 9.77376V11.301H29.3808C28.6374 11.301 28.2656 11.6728 28.2656 12.4162V14.0404H32.5808V16.4889H28.2656V26.7677H25.4293ZM34.9418 22.9374V17.8707C34.9418 15.3172 36.2186 14.0404 38.7721 14.0404H41.9236C44.461 14.0404 45.7297 15.3172 45.7297 17.8707V21.5071H37.7782V23.1798C37.7782 23.9233 38.1499 24.295 38.8933 24.295H45.2448V25.8223L43.96 26.7677H38.7721C36.2186 26.7677 34.9418 25.4909 34.9418 22.9374ZM37.7782 19.2283H42.9176V17.6283C42.9176 16.8687 42.5378 16.4889 41.7782 16.4889H38.8933C38.1499 16.4889 37.7782 16.8687 37.7782 17.6283V19.2283Z" fill="var(--color-drk-1)"/>
</svg>
